<svg xmlns="http://www.w3.org/2000/svg" viewBox="0 0 32 32">
  <defs>
    <linearGradient id="g" x1="0%" y1="0%" x2="100%" y2="100%">
      <stop offset="0%" stop-color="#e84393"/>
      <stop offset="50%" stop-color="#fd79a8"/>
      <stop offset="100%" stop-color="#6c5ce7"/>
    </linearGradient>
  </defs>
  <rect width="32" height="32" rx="8" fill="#06060a"/>
  <path d="M16 26.4l-1.2-1.1C9.4 20.4 6 17.3 6 13.5 6 10.4 8.4 8 11.5 8c1.7 0 3.4.8 4.5 2.1C17.1 8.8 18.8 8 20.5 8 23.6 8 26 10.4 26 13.5c0 3.8-3.4 6.9-8.8 11.8L16 26.4z" fill="url(#g)" opacity="0.9"/>
  <path d="M8 16h4l2-4 2.5 8 2-6 1.5 2h4" fill="none" stroke="#fff" stroke-width="1.5" stroke-linecap="round" stroke-linejoin="round"/>
</svg>
