<svg xmlns="http://www.w3.org/2000/svg" viewBox="0 0 32 32">
  <defs>
    <linearGradient id="fg" x1="0%" y1="0%" x2="100%" y2="100%">
      <stop offset="0%" stop-color="#ff6b9d"/>
      <stop offset="30%" stop-color="#ee5a8f"/>
      <stop offset="65%" stop-color="#c44ecf"/>
      <stop offset="100%" stop-color="#6c5ce7"/>
    </linearGradient>
    <linearGradient id="fhl" x1="20%" y1="0%" x2="80%" y2="80%">
      <stop offset="0%" stop-color="rgba(255,255,255,0.35)"/>
      <stop offset="50%" stop-color="rgba(255,255,255,0.08)"/>
      <stop offset="100%" stop-color="rgba(255,255,255,0)"/>
    </linearGradient>
    <filter id="fglow" x="-30%" y="-30%" width="160%" height="160%">
      <feDropShadow dx="0" dy="0" stdDeviation="1.5" flood-color="#ff6b9d" flood-opacity="0.4"/>
    </filter>
    <radialGradient id="fbg" cx="50%" cy="45%" r="45%">
      <stop offset="0%" stop-color="#ff6b9d" stop-opacity="0.15"/>
      <stop offset="100%" stop-color="#6c5ce7" stop-opacity="0"/>
    </radialGradient>
  </defs>
  <rect width="32" height="32" rx="8" fill="#06060a"/>
  <circle cx="16" cy="15" r="12" fill="url(#fbg)"/>
  <g filter="url(#fglow)">
    <path d="M16 26.4l-1.2-1.1C9.4 20.4 6 17.3 6 13.5 6 10.4 8.4 8 11.5 8c1.7 0 3.4.8 4.5 2.1C17.1 8.8 18.8 8 20.5 8 23.6 8 26 10.4 26 13.5c0 3.8-3.4 6.9-8.8 11.8L16 26.4z" fill="url(#fg)"/>
    <path d="M16 26.4l-1.2-1.1C9.4 20.4 6 17.3 6 13.5 6 10.4 8.4 8 11.5 8c1.7 0 3.4.8 4.5 2.1C17.1 8.8 18.8 8 20.5 8 23.6 8 26 10.4 26 13.5c0 3.8-3.4 6.9-8.8 11.8L16 26.4z" fill="url(#fhl)" opacity="0.6"/>
  </g>
  <path d="M7.5 16H10.5C10.8 16 11 15.7 11.3 15.3L12.1 13.3C12.3 12.8 12.7 12.8 12.9 13.3L14.3 18.7C14.5 19.2 14.9 19.2 15.1 18.7L16 15C16.2 14.3 16.5 14.3 16.7 14.7L17.3 16.3C17.5 16.7 17.7 16.5 17.8 16.2L18 15.7H20.5" fill="none" stroke="rgba(255,255,255,0.9)" stroke-width="1.3" stroke-linecap="round" stroke-linejoin="round"/>
</svg>
